<?xml version="1.0" standalone="no"?>
<!DOCTYPE svg PUBLIC "-//W3C//DTD SVG 20010904//EN"
 "http://www.w3.org/TR/2001/REC-SVG-20010904/DTD/svg10.dtd">
<svg version="1.0" xmlns="http://www.w3.org/2000/svg"
 width="523.000000pt" height="523.000000pt" viewBox="0 0 523.000000 523.000000"
 preserveAspectRatio="xMidYMid meet">
<metadata>
Created by potrace 1.13, written by Peter Selinger 2001-2015
</metadata>
<g transform="translate(0.000000,523.000000) scale(0.100000,-0.100000)"
fill="#000000" stroke="none">
<path d="M2390 5219 c-559 -62 -1079 -337 -1431 -758 -335 -399 -509 -879
-509 -1401 0 -598 230 -1139 661 -1556 316 -305 689 -496 1124 -574 93 -17
358 -39 473 -40 l32 0 0 -440 c0 -348 3 -440 13 -440 22 0 288 150 419 236 70
46 185 130 255 186 160 127 438 404 569 568 482 605 757 1300 781 1975 22 618
-201 1189 -632 1620 -329 329 -739 536 -1205 610 -124 20 -430 28 -550 14z
m100 -1899 l0 -380 -130 -260 -130 -260 -190 0 c-105 0 -190 2 -190 5 0 3 56
118 125 255 l125 250 -188 2 -187 3 -3 383 -2 382 385 0 385 0 0 -380z m1020
0 l0 -380 -130 -260 -130 -260 -190 0 c-105 0 -190 2 -190 5 0 3 56 118 125
255 l125 250 -188 2 -187 3 -3 383 -2 382 385 0 385 0 0 -380z"/>
</g>
</svg>
